<?xml version="1.0" encoding="iso-8859-1"?>
<!-- Generator: Adobe Illustrator 19.0.0, SVG Export Plug-In . SVG Version: 6.00 Build 0)  -->
<svg xmlns="http://www.w3.org/2000/svg" xmlns:xlink="http://www.w3.org/1999/xlink" version="1.1" id="Capa_1" x="0px" y="0px" viewBox="0 0 512 512" style="enable-background:new 0 0 512 512;" xml:space="preserve">
<path style="fill:#BC8544;" d="M504.5,26.914v79.322c0,5.149-2.045,10.087-5.686,13.728l-378.85,378.85  c-3.641,3.641-8.579,5.686-13.728,5.686H26.914c-10.722,0-19.414-8.692-19.414-19.414V26.914C7.5,16.192,16.192,7.5,26.914,7.5  h458.172C495.808,7.5,504.5,16.192,504.5,26.914z"/>
<path style="fill:#8EB55E;" d="M88.902,262.265c14.316-48.82,65.497-76.79,114.317-62.475c29.598,8.679,51.528,30.91,61.022,57.948  c22.887-26.364,59.841-38.506,95.535-28.039c48.82,14.316,76.79,65.497,62.475,114.317c-14.316,48.82-65.497,76.79-114.317,62.475  c-7.794-2.286-15.054-5.515-21.698-9.52c-0.217,7.755-1.42,15.609-3.706,23.403c-14.316,48.82-65.497,76.79-114.317,62.475  c-48.82-14.316-76.79-65.497-62.475-114.317c1.595-5.439,3.65-10.618,6.107-15.51C89.055,329.973,79.135,295.571,88.902,262.265z"/>
<path style="fill:#5BA14D;" d="M243.733,224.507c-0.027-0.077-0.057-0.154-0.085-0.231c0.05,0.053,0.1,0.106,0.15,0.158  C243.777,224.459,243.754,224.482,243.733,224.507z M91.021,320.457c0.108-0.22,0.206-0.447,0.316-0.667  c-0.302-0.306-0.593-0.621-0.891-0.931C90.635,319.392,90.822,319.927,91.021,320.457z M400.202,254.171  c6.398,18.058,7.247,38.276,1.108,58.045c-14.969,48.203-65.452,75.246-113.886,61.043c-0.799-0.234-1.592-0.478-2.379-0.732  c-9.637-3.107-19.775,2.489-22.37,12.276c-0.207,0.781-0.425,1.561-0.653,2.34c-14.316,48.82-65.497,76.79-114.317,62.474  c-15.951-4.677-29.674-13.292-40.426-24.472c9.54,26.927,31.427,49.05,60.934,57.703c48.82,14.315,100.001-13.655,114.317-62.475  c2.285-7.794,3.488-15.648,3.706-23.403c6.763,4.077,14.164,7.349,22.117,9.642c48.796,14.062,100.328-14.6,114.148-63.465  C431.72,310.55,422.162,277.006,400.202,254.171z"/>
<path style="fill:#FBB03B;" d="M447.157,291.918H234.188c-5.523,0-10-4.477-10-10V68.949c0-5.523,4.477-10,10-10h212.969  c5.523,0,10,4.477,10,10v212.969C457.157,287.441,452.68,291.918,447.157,291.918z"/>
<path style="fill:#F99A1E;" d="M457.157,68.656v213.555c0,5.361-4.346,9.707-9.707,9.707h-19.414V58.949h19.414  C452.811,58.949,457.157,63.295,457.157,68.656z"/>
<path style="fill:#F24F43;" d="M362.476,278.145c0,44.028-35.692,79.72-79.72,79.72c-26.693,0-50.318-13.121-64.787-33.263  c-12.586,27.468-40.317,46.549-72.508,46.549c-44.028,0-79.72-35.692-79.72-79.72s35.692-79.72,79.72-79.72  c7.029,0,13.844,0.914,20.337,2.622c-1.708-6.493-2.622-13.308-2.622-20.337c0-44.028,35.692-79.72,79.72-79.72  s79.72,35.692,79.72,79.72c0,4.905-0.446,9.707-1.294,14.367C345.861,221.955,362.476,248.108,362.476,278.145z"/>
<path style="fill:#ED322E;" d="M362.476,278.145c0,44.028-35.692,79.72-79.72,79.72c-5.963,0-11.771-0.659-17.36-1.901  c35.714-7.899,62.435-39.729,62.435-77.819c0-30.037-16.615-56.19-41.154-69.781c0.848-4.661,1.294-9.462,1.294-14.368  c0-38.076-26.702-69.897-62.398-77.81c5.579-1.237,11.37-1.91,17.322-1.91c44.028,0,79.72,35.692,79.72,79.719  c0,4.906-0.446,9.707-1.294,14.368C345.861,221.955,362.476,248.108,362.476,278.145z"/>
<path style="fill:#D59A4C;" d="M38.286,504.5H26.914c-10.722,0-19.414-8.692-19.414-19.414V26.914C7.5,16.192,16.192,7.5,26.914,7.5  h458.172c10.722,0,19.414,8.692,19.414,19.414v11.372c0,5.149-2.045,10.087-5.686,13.728l-446.8,446.8  C48.373,502.455,43.435,504.5,38.286,504.5z"/>
<path style="fill:#BC8544;" d="M75.449,65.742h303.835c8.648,0,12.979,10.456,6.864,16.571L82.313,386.148  c-6.115,6.115-16.571,1.784-16.571-6.864V75.449C65.742,70.088,70.088,65.742,75.449,65.742z"/>
<path d="M136.338,273.473v0.971c0,4.143-3.357,7.5-7.5,7.5s-7.5-3.357-7.5-7.5v-0.971c0-4.143,3.357-7.5,7.5-7.5  C132.981,265.973,136.338,269.33,136.338,273.473z M143.398,101.438c-4.143,0-7.5,3.357-7.5,7.5v0.971c0,4.143,3.357,7.5,7.5,7.5  s7.5-3.357,7.5-7.5v-0.971C150.898,104.796,147.541,101.438,143.398,101.438z M143.398,174.727c-4.143,0-7.5,3.357-7.5,7.5v0.971  c0,4.143,3.357,7.5,7.5,7.5s7.5-3.357,7.5-7.5v-0.971C150.898,178.084,147.541,174.727,143.398,174.727z M104.57,290.24  c-4.143,0-7.5,3.357-7.5,7.5v0.971c0,4.143,3.357,7.5,7.5,7.5s7.5-3.357,7.5-7.5v-0.971  C112.07,293.598,108.713,290.24,104.57,290.24z M308.418,97.07c-4.143,0-7.5,3.357-7.5,7.5v0.971c0,4.143,3.357,7.5,7.5,7.5  s7.5-3.357,7.5-7.5v-0.971C315.918,100.428,312.561,97.07,308.418,97.07z M172.52,116.484c-4.143,0-7.5,3.357-7.5,7.5v0.971  c0,4.143,3.357,7.5,7.5,7.5s7.5-3.357,7.5-7.5v-0.971C180.02,119.842,176.662,116.484,172.52,116.484z M512,26.914v79.321  c0,7.188-2.8,13.946-7.883,19.031l-37.672,37.673c-0.319,0.318-0.66,0.603-1.018,0.853v118.404c0,9.488-7.719,17.207-17.207,17.207  h-16.499c2.963,15.467,2.203,31.45-2.274,46.723c-14.324,48.849-62.871,78.981-112.92,70.076c-4.078-0.725-6.797-4.618-6.071-8.696  c0.724-4.079,4.616-6.802,8.696-6.071c42.501,7.555,83.733-18.036,95.9-59.529c4.078-13.907,4.528-28.501,1.347-42.502h-21.104  c-4.143,0-7.5-3.357-7.5-7.5s3.357-7.5,7.5-7.5h52.925c1.217,0,2.207-0.99,2.207-2.207v-171.19L344.694,216.74  c16.156,16.28,25.281,38.241,25.281,61.405c0,48.093-39.126,87.22-87.219,87.22c-23.146,0-45.124-9.129-61.406-25.281  l-99.068,99.068c10.988,17.71,27.888,30.589,48.041,36.499c21.69,6.361,44.557,3.893,64.39-6.946  c19.834-10.839,34.26-28.753,40.619-50.442c2.058-7.014,3.203-14.248,3.406-21.502c0.115-4.14,3.573-7.383,7.707-7.287  c4.141,0.116,7.403,3.566,7.287,7.707c-0.238,8.541-1.587,17.055-4.006,25.304c-7.487,25.533-24.47,46.623-47.819,59.384  c-23.351,12.76-50.271,15.664-75.805,8.178c-6.664-1.955-13.024-4.556-19.016-7.749l-21.819,21.82  C120.184,509.2,113.425,512,106.235,512H26.914C12.073,512,0,499.927,0,485.086V26.914C0,12.073,12.073,0,26.914,0h458.172  C499.927,0,512,12.073,512,26.914z M111.432,450.003L64.435,497h41.801c3.183,0,6.175-1.239,8.425-3.49l19.472-19.472  C125.333,467.41,117.666,459.318,111.432,450.003z M497,64.435l-31.572,31.572v46.736l28.082-28.083  c2.251-2.25,3.49-5.243,3.49-8.425V64.435z M497,26.914C497,20.345,491.655,15,485.086,15H26.914C20.345,15,15,20.345,15,26.914  v458.172C15,491.655,20.345,497,26.914,497h11.372c3.183,0,6.175-1.239,8.425-3.49l220.973-220.973c2.93-2.928,7.678-2.928,10.607,0  c2.929,2.93,2.929,7.678,0,10.607l-46.333,46.332c13.479,13.347,31.658,20.889,50.799,20.889c39.821,0,72.219-32.397,72.219-72.22  c0-19.156-7.539-37.32-20.889-50.798l-29.102,29.103c-2.93,2.928-7.678,2.928-10.607,0c-2.929-2.93-2.929-7.678,0-10.607  L493.51,46.711c2.251-2.25,3.49-5.243,3.49-8.425V26.914z M395.181,68.864c2.673,6.453,1.209,13.813-3.729,18.753L87.616,391.451  c-3.3,3.299-7.681,5.048-12.149,5.048c-2.22,0-4.461-0.431-6.602-1.317c-6.453-2.673-10.623-8.913-10.623-15.897V75.449  c0-9.488,7.719-17.207,17.207-17.207h303.835C386.269,58.242,392.508,62.411,395.181,68.864z M381.322,74.604  c-0.257-0.621-0.819-1.362-2.038-1.362H75.449c-1.217,0-2.207,0.99-2.207,2.207v303.835c0,1.219,0.741,1.781,1.362,2.038  c0.622,0.258,1.544,0.382,2.404-0.478L380.844,77.01C381.706,76.148,381.58,75.227,381.322,74.604z M230.762,174.727  c-4.143,0-7.5,3.357-7.5,7.5v0.971c0,4.143,3.357,7.5,7.5,7.5s7.5-3.357,7.5-7.5v-0.971  C238.262,178.084,234.904,174.727,230.762,174.727z M279.297,97.07c-4.143,0-7.5,3.357-7.5,7.5v0.971c0,4.143,3.357,7.5,7.5,7.5  s7.5-3.357,7.5-7.5v-0.971C286.797,100.428,283.439,97.07,279.297,97.07z"/>
<g>
</g>
<g>
</g>
<g>
</g>
<g>
</g>
<g>
</g>
<g>
</g>
<g>
</g>
<g>
</g>
<g>
</g>
<g>
</g>
<g>
</g>
<g>
</g>
<g>
</g>
<g>
</g>
<g>
</g>
</svg>
