<svg xmlns="http://www.w3.org/2000/svg" viewBox="0 0 512 512"><defs><style>.cls-1{fill:#27273d;}.cls-2{fill:#fff;}.cls-3{fill:#e2e1e0;}.cls-4{fill:#ed9b64;}.cls-5{fill:#f7b68b;}.cls-6{fill:#843a29;}.cls-7{fill:#a65c3b;}.cls-8{fill:#9e4830;}.cls-9{fill:#bc6f50;}.cls-10{fill:#00b564;}.cls-11{fill:#d88a55;}</style></defs><title>English Food</title><g id="BULINE"><circle class="cls-1" cx="256" cy="256" r="256"/></g><g id="Icons"><circle class="cls-2" cx="257.46" cy="255.07" r="227.33"/><circle class="cls-3" cx="257.46" cy="255.07" r="188.5"/><path class="cls-4" d="M437.8,360.1l-26.65,12.06c-42.07,19-91.21-2.42-106.24-46.08a931.93,931.93,0,0,0-74.56-163.51A73.06,73.06,0,0,1,263.59,59.51l35-15.82a72.93,72.93,0,0,1,88,22q72.35,94.79,95.67,207.89A77.93,77.93,0,0,1,437.8,360.1Z"/><path class="cls-5" d="M427.76,342.1,405.85,352c-34.6,15.65-75.86-3.86-89.2-41.92a866.79,866.79,0,0,0-65.13-142.92c-18.69-32.77-6.73-73.89,25.62-88.52l28.75-13c25.4-11.49,56-3,73.59,20.7q62,83.42,83.54,181.72C469.82,299.05,455,329.77,427.76,342.1Z"/><path class="cls-6" d="M259.88,107.17c-3.71,3.39-12.11,12.58-7.33,22.49a15.75,15.75,0,0,1-.93,15.15c-5.56,8.89-8.88,24.41,15.56,42.06a15.46,15.46,0,0,1,6.66,12.66c-.1,4.66,4.22,11.2,23.92,17.28,0,0,24.67,7.18,3.06,34.46a15.67,15.67,0,0,0-2.93,13.48c3.71,15.1,12.37,48.21,21.3,66.89a15.66,15.66,0,0,0,21.49,7c8-4.25,19.64-7,28,6a15.22,15.22,0,0,0,12.28,7c6.55.14,15.43-3.88,24.78-20.52l20.5-35.17a16,16,0,0,1,1.93-2.63l14.38-15.88a15.82,15.82,0,0,0-.13-21.6c-4.92-5-7.4-13.14,1.58-25.56a16.26,16.26,0,0,0,2.63-5.6c2-8.12,4.58-27.69-17-27a16.06,16.06,0,0,1-7.88-1.71c-9.6-4.92-32.11-19.39-36.1-48.49a15.91,15.91,0,0,0-7.87-11.76L299.63,91.57a15.81,15.81,0,0,0-7.39-2c-7.25-.17-21.7,1.28-29.58,14.17A15.71,15.71,0,0,1,259.88,107.17Z"/><path class="cls-7" d="M360.06,78.84a85,85,0,0,0-8.74,2,83.43,83.43,0,0,0-9.55-9.06c-23.68-19.2-53-22.31-65.42-7s-3.35,43.37,20.33,62.57a76.76,76.76,0,0,0,29,15c11.44,7.17,28.57,10.15,46.78,6.93,30-5.29,51.57-25.37,48.14-44.85S390.08,73.55,360.06,78.84Z"/><path class="cls-8" d="M421,109.33c-.52,17.86-20.92,35.17-48.48,40-18.21,3.22-35.34.24-46.78-6.93a76.76,76.76,0,0,1-29-15C273,108.24,263.9,80.22,276.35,64.86a23.35,23.35,0,0,1,1.95-2.14c-.32,14.81,9.13,32.82,25.89,46.4a76.83,76.83,0,0,0,29,15c11.45,7.18,28.57,10.15,46.79,6.94C397.77,127.93,412.57,119.62,421,109.33Z"/><path class="cls-7" d="M284.52,191.22a65.32,65.32,0,0,0,6.25-2.41,63.23,63.23,0,0,0,8,5.7c19.55,11.73,41.56,11,49.17-1.72s-2.07-32.47-21.62-44.19a57.38,57.38,0,0,0-23.08-8.06c-9.22-4.11-22.21-4.51-35.36-.22-21.67,7.07-35.52,24.2-30.93,38.26S262.85,198.3,284.52,191.22Z"/><path class="cls-8" d="M236.21,175.05c-1.49-13.28,11.8-28.24,31.69-34.73,13.15-4.29,26.14-3.89,35.37.22a57.59,57.59,0,0,1,23.07,8.06c19.54,11.72,29.22,31.51,21.62,44.19a18.62,18.62,0,0,1-1.22,1.78c-1.32-11-10.21-23.33-24-31.63a57.58,57.58,0,0,0-23.08-8.06c-9.22-4.11-22.21-4.51-35.36-.22C251.44,158.84,241.36,166.55,236.21,175.05Z"/><path class="cls-7" d="M452.79,303.68a64.32,64.32,0,0,0-.27-6.71,62.1,62.1,0,0,0,8-5.75c17.4-14.73,23.76-35.82,14.2-47.1s-31.4-8.5-48.8,6.23a57.39,57.39,0,0,0-15,19.26c-6.87,7.4-11.43,19.58-11.6,33.4-.29,22.8,11.47,41.42,26.26,41.61S452.51,326.47,452.79,303.68Z"/><path class="cls-8" d="M421.92,344.2C408.87,341.34,399,323.93,399.25,303c.17-13.84,4.73-26,11.6-33.42a57.46,57.46,0,0,1,15-19.25c17.4-14.72,39.25-17.52,48.8-6.23a16.62,16.62,0,0,1,1.3,1.73c-10.84-2.3-25.38,2.14-37.69,12.57a57.37,57.37,0,0,0-15.06,19.25c-6.86,7.41-11.43,19.58-11.6,33.41C411.48,324.56,415.53,336.59,421.92,344.2Z"/><path class="cls-7" d="M418.23,225.37A80.56,80.56,0,0,0,418,217a79.46,79.46,0,0,0,10.12-7.08c22.09-18.16,30.45-44.5,18.67-58.83s-39.24-11.22-61.33,6.94a72.09,72.09,0,0,0-19.24,23.88c-8.74,9.16-14.69,24.35-15.15,41.69-.77,28.59,13.64,52.17,32.18,52.67S417.46,254,418.23,225.37Z"/><path class="cls-8" d="M378.77,275.64c-16.32-3.83-28.4-25.84-27.69-52.07.46-17.35,6.41-32.53,15.15-41.7A72.19,72.19,0,0,1,385.47,158c22.09-18.16,49.55-21.27,61.33-6.94a22.28,22.28,0,0,1,1.59,2.2c-13.55-3.08-31.87,2.23-47.51,15.08a72.12,72.12,0,0,0-19.23,23.88c-8.75,9.17-14.7,24.35-15.16,41.7C366,250.82,370.89,266,378.77,275.64Z"/><path class="cls-7" d="M357,273.8a79.41,79.41,0,0,0-7.59-3.63,78.19,78.19,0,0,0-1.69-12.24c-6.1-27.94-25.73-47.38-43.86-43.42S276,244.32,282.08,272.26a72.18,72.18,0,0,0,12.49,28c4.18,12,15,24.17,30.21,32.49,25.1,13.71,52.66,11.62,61.55-4.66S382.08,287.51,357,273.8Z"/><path class="cls-8" d="M383.76,331.83c-10.85,12.79-35.94,13.51-59,.93-15.24-8.32-26-20.53-30.22-32.5a72.21,72.21,0,0,1-12.49-28c-6.1-27.93,3.65-53.79,21.77-57.75a21,21,0,0,1,2.68-.42c-8.91,10.66-12.54,29.39-8.22,49.16a72.26,72.26,0,0,0,12.49,28c4.18,12,15,24.17,30.22,32.49C355.86,331.86,371.57,334.45,383.76,331.83Z"/><circle class="cls-9" cx="382.4" cy="101.32" r="13.42"/><circle class="cls-9" cx="354.61" cy="98.15" r="9.51"/><path class="cls-10" d="M340,61.34c-3.09-2.29-11.29,3.53-18.31,13-.56.75-1.08,1.5-1.59,2.25-.91-7.66-3.29-13.06-6.16-13.11s-5.51,5.38-6.7,13.14c-.53-.86-1.08-1.72-1.67-2.58-6.66-9.73-14.64-15.86-17.81-13.69s-.35,11.83,6.31,21.56c4.42,6.45,9.4,11.3,13.19,13.22,1.07,6.55,3.26,11,5.88,11s5-4.37,6.31-10.94c3.83-1.85,8.88-6.45,13.44-12.6C339.92,73.17,343.1,63.63,340,61.34Z"/><path class="cls-10" d="M264.58,160.37c-.77,3.77,8,8.73,19.54,11.09.91.18,1.82.34,2.71.48-6.55,4.07-10.45,8.51-9.28,11.14s7.21,2.72,14.75.51c-.56.84-1.1,1.7-1.64,2.6-6,10.15-8.18,20-4.86,21.93s10.86-4.69,16.86-14.84c4-6.73,6.26-13.3,6.4-17.54,5.48-3.74,8.59-7.61,7.53-10s-6.08-2.68-12.58-1.09c-3.3-2.69-9.6-5.32-17.11-6.85C275.34,155.45,265.35,156.6,264.58,160.37Z"/><path class="cls-10" d="M367.84,199.44c-.77,3.77,8,8.74,19.54,11.09.91.19,1.81.34,2.71.49-6.56,4.07-10.45,8.5-9.28,11.13s7.21,2.72,14.74.51c-.55.84-1.1,1.7-1.63,2.6-6,10.16-8.18,20-4.87,21.93s10.87-4.68,16.87-14.84c4-6.73,6.26-13.29,6.39-17.54,5.49-3.74,8.6-7.61,7.54-10s-6.08-2.68-12.59-1.09c-3.3-2.69-9.6-5.32-17.1-6.85C378.6,194.52,368.61,195.67,367.84,199.44Z"/><path class="cls-10" d="M376.77,260c-3.69-1.1-9.41,7.17-12.78,18.47-.27.9-.51,1.78-.73,2.66-3.47-6.89-7.54-11.16-10.27-10.23s-3.34,6.94-1.81,14.64c-.79-.63-1.6-1.25-2.45-1.86-9.58-6.88-19.17-9.92-21.41-6.8S331,288.14,340.6,295c6.35,4.56,12.69,7.42,16.9,7.93,3.24,5.79,6.82,9.24,9.3,8.39s3.21-5.81,2.2-12.43c3-3.05,6.15-9.09,8.34-16.43C380.71,271.17,380.46,261.12,376.77,260Z"/><path class="cls-4" d="M258.14,431.77l-25.09,13.91c-39.62,22-89.38,4.93-107.56-36.56a914.33,914.33,0,0,0-86-153.91A71.67,71.67,0,0,1,63.79,151.79l32.92-18.26A71.56,71.56,0,0,1,184.53,148q78.3,86.9,110.14,195.62A76.46,76.46,0,0,1,258.14,431.77Z"/><path class="cls-5" d="M246.88,415l-20.63,11.45c-32.58,18.06-74.48,2.29-90.56-33.87A849.22,849.22,0,0,0,60.59,258c-20.88-30.54-12.48-71.7,18-88.59l27.08-15c23.91-13.26,54.48-7.41,73.6,14.37q67.25,76.6,96.2,171C284.57,369.51,272.56,400.74,246.88,415Z"/><path class="cls-11" d="M262.13,429.39c-1.29.83-2.63,1.62-4,2.38l-25.09,13.91c-39.61,22-89.37,4.93-107.56-36.56a914.33,914.33,0,0,0-86-153.91A71.67,71.67,0,0,1,63.79,151.79l32.93-18.26a71.68,71.68,0,0,0-24,103.3,914.33,914.33,0,0,1,86,153.91,76.83,76.83,0,0,0,47.21,42.55A76,76,0,0,0,262.13,429.39Z"/><path class="cls-4" d="M205.84,433.29c-27.91,4-57.28-11.83-70.14-40.74A849.83,849.83,0,0,0,60.6,258c-16-23.39-14.82-53,.27-73.15a71.11,71.11,0,0,0,11.8,52,914.33,914.33,0,0,1,86,153.91A76.83,76.83,0,0,0,205.84,433.29Z"/><ellipse class="cls-4" cx="102.53" cy="237.24" rx="24.49" ry="28.1" transform="translate(-102.19 79.49) rotate(-29.01)"/><ellipse class="cls-4" cx="178.77" cy="232.94" rx="14.76" ry="16.93" transform="translate(-90.54 115.93) rotate(-29.01)"/><ellipse class="cls-4" cx="155.12" cy="299.62" rx="27.23" ry="31.25" transform="translate(-125.85 112.83) rotate(-29.01)"/><ellipse class="cls-4" cx="229.83" cy="355.43" rx="31.25" ry="27.23" transform="translate(-178.38 467.31) rotate(-72.44)"/></g></svg>